HIERARCHY
ROOT Hips
{
	OFFSET 0.000000 0.000000 0.000000
	CHANNELS 6 Xposition Yposition Zposition Xrotation Yrotation Zrotation
	JOINT LeftUpLeg_virtual
	{
		OFFSET 0.000000 0.000000 0.000000
		CHANNELS 3 Xrotation Yrotation Zrotation
		JOINT LeftUpLeg
		{
			OFFSET 11.394100 -6.187798 -0.413800
			CHANNELS 3 Xrotation Yrotation Zrotation
			JOINT LeftLeg
			{
				OFFSET 0.430247 -32.302673 3.732800
				CHANNELS 3 Xrotation Yrotation Zrotation
				JOINT LeftFoot
				{
					OFFSET -0.430247 -48.264931 -6.423300
					CHANNELS 3 Xrotation Yrotation Zrotation
					JOINT LeftToeBase
					{
						OFFSET 4.230900 -16.068199 23.438400
						CHANNELS 3 Xrotation Yrotation Zrotation
						JOINT LeftToe_End
						{
							OFFSET 4.510700 0.695400 19.974600
							CHANNELS 3 Xrotation Yrotation Zrotation
							End Site
							{
								OFFSET 0 0 0
							}
						}
					}
				}
			}
		}
	}
	JOINT RightUpLeg_virtual
	{
		OFFSET 0.000000 0.000000 0.000000
		CHANNELS 3 Xrotation Yrotation Zrotation
		JOINT RightUpLeg
		{
			OFFSET -11.333700 -6.187798 -0.413800
			CHANNELS 3 Xrotation Yrotation Zrotation
			JOINT RightLeg
			{
				OFFSET -0.430392 -32.302628 3.733000
				CHANNELS 3 Xrotation Yrotation Zrotation
				JOINT RightFoot
				{
					OFFSET 0.430392 -48.264973 -6.423500
					CHANNELS 3 Xrotation Yrotation Zrotation
					JOINT RightToeBase
					{
						OFFSET -4.230900 -16.068199 23.438400
						CHANNELS 3 Xrotation Yrotation Zrotation
						JOINT RightToe_End
						{
							OFFSET -4.510700 0.695400 19.974600
							CHANNELS 3 Xrotation Yrotation Zrotation
							End Site
							{
								OFFSET 0 0 0
							}
						}
					}
				}
			}
		}
	}
	JOINT Spine_virtual
	{
		OFFSET 0.000000 0.000000 0.000000
		CHANNELS 3 Xrotation Yrotation Zrotation
		JOINT Spine
		{
			OFFSET -0.002400 12.777504 0.315300
			CHANNELS 3 Xrotation Yrotation Zrotation
			JOINT Spine1
			{
				OFFSET -0.002067 5.816869 0.032633
				CHANNELS 3 Xrotation Yrotation Zrotation
				JOINT Spine1_split
				{
					OFFSET -0.002067 5.816869 0.032633
					CHANNELS 3 Xrotation Yrotation Zrotation
					JOINT Spine2
					{
						OFFSET -0.002067 5.816869 0.032633
						CHANNELS 3 Xrotation Yrotation Zrotation
						JOINT Neck_virtual
						{
							OFFSET 0.000000 0.000000 0.000000
							CHANNELS 3 Xrotation Yrotation Zrotation
							JOINT Neck
							{
								OFFSET -0.003700 21.199493 -0.826900
								CHANNELS 3 Xrotation Yrotation Zrotation
								JOINT Head
								{
									OFFSET 0.000000 20.442200 4.834800
									CHANNELS 3 Xrotation Yrotation Zrotation
									JOINT HeadTop_End
									{
										OFFSET 0.000000 34.668396 4.968400
										CHANNELS 3 Xrotation Yrotation Zrotation
										End Site
										{
											OFFSET 0 0 0
										}
									}
								}
							}
						}
						JOINT LeftShoulder_virtual
						{
							OFFSET 0.000000 0.000000 0.000000
							CHANNELS 3 Xrotation Yrotation Zrotation
							JOINT LeftShoulder
							{
								OFFSET 3.288150 8.794197 -1.372250
								CHANNELS 3 Xrotation Yrotation Zrotation
								JOINT LeftShoulder_split
								{
									OFFSET 3.288150 8.794197 -1.372250
									CHANNELS 3 Xrotation Yrotation Zrotation
									JOINT LeftArm
									{
										OFFSET 11.953299 -2.279007 -0.146200
										CHANNELS 3 Xrotation Yrotation Zrotation
										JOINT LeftForeArm
										{
											OFFSET 18.448900 0.000000 0.000000
											CHANNELS 3 Xrotation Yrotation Zrotation
											JOINT LeftHand
											{
												OFFSET 29.527798 0.000000 0.000000
												CHANNELS 3 Xrotation Yrotation Zrotation
												End Site
												{
													OFFSET 0 0 0
												}
											}
										}
									}
								}
							}
						}
						JOINT RightShoulder_virtual
						{
							OFFSET 0.000000 0.000000 0.000000
							CHANNELS 3 Xrotation Yrotation Zrotation
							JOINT RightShoulder
							{
								OFFSET -3.249400 8.794197 -1.372250
								CHANNELS 3 Xrotation Yrotation Zrotation
								JOINT RightShoulder_split
								{
									OFFSET -3.249400 8.794197 -1.372250
									CHANNELS 3 Xrotation Yrotation Zrotation
									JOINT RightArm
									{
										OFFSET -11.953299 -2.279007 -0.146200
										CHANNELS 3 Xrotation Yrotation Zrotation
										JOINT RightForeArm
										{
											OFFSET -18.448900 0.000000 0.000000
											CHANNELS 3 Xrotation Yrotation Zrotation
											JOINT RightHand
											{
												OFFSET -29.527802 0.000000 0.000000
												CHANNELS 3 Xrotation Yrotation Zrotation
												End Site
												{
													OFFSET 0 0 0
												}
											}
										}
									}
								}
							}
						}
					}
				}
			}
		}
	}
}
MOTION
Frames: 4
Frame Time: 0.03333333
5.548059 73.533241 132.757202 0.000000 0.000000 0.000000 4.161371 -3.511089 -0.372707 35.890346 42.771048 3.524466 24.072348 11.861599 -1.706524 -31.220241 24.979812 -18.209337 -14.756246 -5.735715 -9.901458 0.000000 0.000000 0.000000 4.709681 -3.487259 -1.230192 -86.570455 6.886755 -5.010697 49.388162 -8.270684 3.569556 17.421309 2.352807 19.381705 13.283591 -5.039853 -42.268667 0.000000 0.000000 0.000000 2.572689 -1.331307 -0.110979 2.216844 -11.791251 3.691234 2.642395 -6.163975 -0.920593 0.204742 -1.054514 0.119011 0.000000 0.000000 0.000000 5.864229 -5.121144 1.345507 12.217601 19.336896 6.732124 3.241904 12.785696 -1.305107 0.000000 0.000000 0.000000 4.575979 -5.925711 0.280646 1.939859 -13.183956 -10.629631 -4.372656 0.084019 -7.635738 -60.888172 -19.245405 -25.721896 -22.954575 -54.745315 -4.548883 0.000000 0.000000 0.000000 3.996681 -6.548481 0.829879 -0.630620 0.526585 -14.037465 -10.733807 -8.105140 -4.744445 -44.854812 39.551529 48.081779 5.094934 3.567215 -0.510836 0.000000 0.000000 0.000000 
4.865527 73.454254 135.763718 0.000000 0.000000 0.000000 5.142879 -8.780531 -1.604022 39.937421 45.543148 0.825229 17.967864 12.718365 -2.132418 -25.826981 22.164425 -16.284870 -25.677475 -5.950173 -10.505880 0.000000 0.000000 0.000000 5.790043 -9.552503 -2.163141 -84.903110 7.088516 -0.037364 53.081464 -12.100148 5.228879 12.922134 -1.922685 16.102156 15.498220 -6.651327 -42.378209 0.000000 0.000000 0.000000 3.589204 -6.878569 -1.507097 2.276168 -13.211056 5.058011 3.419738 -8.899953 -0.478626 0.042855 -1.049771 0.075187 0.000000 0.000000 0.000000 6.457635 -7.862208 2.105413 8.521718 21.593983 6.438859 8.781771 20.529925 -1.422930 0.000000 0.000000 0.000000 4.826913 -8.759134 0.502311 0.414124 -21.485656 -13.741378 -3.675205 -1.046807 -6.065385 -52.244236 -28.847335 -24.255849 -13.560511 -40.870711 -2.183265 0.000000 0.000000 0.000000 4.590919 -9.189017 1.785314 -0.640089 -3.914188 -6.508544 -8.438829 -7.079356 -4.534023 -29.457653 34.259990 35.233029 3.143170 -3.858121 1.664530 0.000000 0.000000 0.000000 
4.383193 73.471321 138.820694 0.000000 0.000000 0.000000 6.430489 -14.437423 -2.789243 39.174823 47.677780 1.718575 16.287088 12.570986 -3.298430 -16.363885 19.970249 -14.868002 -34.112075 -5.340125 -12.277365 0.000000 0.000000 0.000000 6.928777 -14.971155 -2.952957 -83.820785 7.683530 4.118648 57.643477 -13.786433 6.516135 9.827765 -4.476030 13.888773 16.432581 -7.479795 -41.529568 0.000000 0.000000 0.000000 5.228822 -11.859924 -2.594058 2.236741 -13.905804 6.376126 4.046189 -11.022396 -0.180606 -0.059383 -0.903622 0.032271 0.000000 0.000000 0.000000 7.057473 -9.973440 2.652929 4.057300 23.257680 6.689559 12.719994 26.343787 -2.430363 0.000000 0.000000 0.000000 4.888444 -10.910502 0.587978 -1.038955 -28.362629 -15.678358 -2.570902 -2.271875 -4.226221 -43.751668 -35.209109 -22.311602 -5.181825 -29.810863 -1.507958 0.000000 0.000000 0.000000 4.842160 -11.203607 2.461094 -0.478500 -7.337619 -0.172679 -6.400164 -5.956632 -4.287702 -19.532685 27.610971 26.108231 0.673521 -3.719522 2.885011 0.000000 0.000000 0.000000 
4.089319 73.491249 142.127731 0.000000 0.000000 0.000000 7.595819 -20.365423 -3.936354 33.297623 48.824883 6.889107 20.103374 11.567573 -5.353236 -5.758824 19.186828 -13.286087 -35.641396 -4.047274 -15.476765 0.000000 0.000000 0.000000 7.826964 -19.842770 -3.919688 -82.687322 8.390827 7.237107 61.113616 -13.439619 6.957500 8.635687 -4.848526 13.790869 15.106886 -7.263978 -40.060207 0.000000 0.000000 0.000000 7.267502 -16.793678 -3.436446 2.288736 -13.839865 7.457423 4.412329 -12.418137 -0.058565 -0.096077 -0.606867 0.063750 0.000000 0.000000 0.000000 7.450267 -11.368397 2.876168 -0.708890 24.209898 7.379591 14.521102 30.291148 -3.655412 0.000000 0.000000 0.000000 4.600711 -12.304007 0.499689 -1.834733 -33.373534 -16.085936 -1.000964 -2.988048 -2.588068 -39.268301 -38.222340 -22.782245 2.866520 -23.056378 -1.196889 0.000000 0.000000 0.000000 4.650228 -12.459579 2.801302 -0.379081 -9.318582 4.672590 -4.133350 -5.030076 -3.961544 -14.257735 21.476417 19.252736 -2.467480 1.308400 3.756811 0.000000 0.000000 0.000000 
